<svg aria-hidden="true" style="position: absolute; width: 0; height: 0; overflow: hidden;" version="1.1" xmlns="http://www.w3.org/2000/svg" xmlns:xlink="http://www.w3.org/1999/xlink">
<defs>
<symbol id="icon-play" viewBox="0 0 44 56">
<title>play</title>
<path d="M43.25 28.969l-41.5 23.062c-0.969 0.531-1.75 0.063-1.75-1.031v-46c0-1.094 0.781-1.562 1.75-1.031l41.5 23.062c0.969 0.531 0.969 1.406 0 1.938z"></path>
</symbol>
<symbol id="icon-angle-left" viewBox="0 0 21 56">
<title>angle-left</title>
<path d="M19.594 17c0 0.25-0.125 0.531-0.312 0.719l-12.281 12.281 12.281 12.281c0.188 0.188 0.312 0.469 0.312 0.719s-0.125 0.531-0.312 0.719l-1.562 1.562c-0.188 0.188-0.469 0.312-0.719 0.312s-0.531-0.125-0.719-0.312l-14.563-14.563c-0.188-0.188-0.312-0.469-0.312-0.719s0.125-0.531 0.312-0.719l14.563-14.563c0.188-0.188 0.469-0.312 0.719-0.312s0.531 0.125 0.719 0.312l1.562 1.562c0.188 0.188 0.312 0.438 0.312 0.719z"></path>
</symbol>
<symbol id="icon-angle-right" viewBox="0 0 19 56">
<title>angle-right</title>
<path d="M18.594 30c0 0.25-0.125 0.531-0.312 0.719l-14.563 14.563c-0.188 0.188-0.469 0.312-0.719 0.312s-0.531-0.125-0.719-0.312l-1.562-1.562c-0.188-0.188-0.312-0.438-0.312-0.719 0-0.25 0.125-0.531 0.312-0.719l12.281-12.281-12.281-12.281c-0.188-0.188-0.312-0.469-0.312-0.719s0.125-0.531 0.312-0.719l1.562-1.562c0.188-0.188 0.469-0.312 0.719-0.312s0.531 0.125 0.719 0.312l14.563 14.563c0.188 0.188 0.312 0.469 0.312 0.719z"></path>
</symbol>
<symbol id="icon-twitter" viewBox="0 0 32 32">
<title>twitter</title>
<path d="M32 7.075c-1.175 0.525-2.444 0.875-3.769 1.031 1.356-0.813 2.394-2.1 2.887-3.631-1.269 0.75-2.675 1.3-4.169 1.594-1.2-1.275-2.906-2.069-4.794-2.069-3.625 0-6.563 2.938-6.563 6.563 0 0.512 0.056 1.012 0.169 1.494-5.456-0.275-10.294-2.888-13.531-6.862-0.563 0.969-0.887 2.1-0.887 3.3 0 2.275 1.156 4.287 2.919 5.463-1.075-0.031-2.087-0.331-2.975-0.819 0 0.025 0 0.056 0 0.081 0 3.181 2.263 5.838 5.269 6.437-0.55 0.15-1.131 0.231-1.731 0.231-0.425 0-0.831-0.044-1.237-0.119 0.838 2.606 3.263 4.506 6.131 4.563-2.25 1.762-5.075 2.813-8.156 2.813-0.531 0-1.050-0.031-1.569-0.094 2.913 1.869 6.362 2.95 10.069 2.95 12.075 0 18.681-10.006 18.681-18.681 0-0.287-0.006-0.569-0.019-0.85 1.281-0.919 2.394-2.075 3.275-3.394z"></path>
</symbol>
<symbol id="icon-vimeo" viewBox="0 0 32 32">
<title>vimeo</title>
<path d="M31.988 8.563c-0.144 3.113-2.319 7.381-6.525 12.794-4.35 5.65-8.031 8.481-11.044 8.481-1.863 0-3.444-1.719-4.731-5.163-0.863-3.156-1.719-6.313-2.581-9.469-0.956-3.444-1.981-5.162-3.081-5.162-0.237 0-1.075 0.506-2.513 1.506l-1.506-1.938c1.581-1.387 3.138-2.775 4.669-4.162 2.106-1.819 3.688-2.775 4.744-2.875 2.487-0.237 4.025 1.463 4.6 5.106 0.619 3.931 1.050 6.375 1.294 7.331 0.719 3.263 1.506 4.894 2.369 4.894 0.669 0 1.675-1.056 3.019-3.175 1.337-2.113 2.056-3.725 2.156-4.831 0.194-1.825-0.525-2.744-2.156-2.744-0.769 0-1.556 0.175-2.369 0.525 1.575-5.15 4.575-7.65 9.012-7.506 3.281 0.087 4.831 2.219 4.644 6.388z"></path>
</symbol>
<symbol id="icon-tumblr" viewBox="0 0 32 32">
<title>tumblr</title>
<path d="M18.001 14l-0 7.318c0 1.857-0.024 2.927 0.173 3.453 0.195 0.524 0.685 1.067 1.218 1.381 0.709 0.425 1.517 0.637 2.428 0.637 1.62 0 2.577-0.214 4.179-1.267v4.811c-1.366 0.642-2.558 1.019-3.666 1.279-1.109 0.258-2.308 0.388-3.596 0.388-1.463 0-2.327-0.184-3.45-0.552-1.124-0.371-2.083-0.9-2.876-1.579-0.795-0.685-1.344-1.413-1.652-2.182s-0.46-1.888-0.46-3.351v-11.222h-4.295v-4.531c1.256-0.408 2.661-0.993 3.556-1.755 0.899-0.764 1.618-1.678 2.16-2.748 0.543-1.067 0.917-2.429 1.121-4.079h5.159l-0 8h7.999v6h-7.999z"></path>
</symbol>
</defs>
</svg>
